<?xml version="1.0" encoding="UTF-8"?>
<!DOCTYPE svg PUBLIC "-//W3C//DTD SVG 1.1//EN" "http://www.w3.org/Graphics/SVG/1.1/DTD/svg11.dtd">
<!-- Creator: CorelDRAW 2021.5 -->
<svg xmlns="http://www.w3.org/2000/svg" xml:space="preserve" width="84.6666mm" height="84.6666mm" version="1.1" style="shape-rendering:geometricPrecision; text-rendering:geometricPrecision; image-rendering:optimizeQuality; fill-rule:evenodd; clip-rule:evenodd"
viewBox="0 0 8466.66 8466.66"
 xmlns:xlink="http://www.w3.org/1999/xlink"
 xmlns:xodm="http://www.corel.com/coreldraw/odm/2003">
 <defs>
  <style type="text/css">
   <![CDATA[
    .fil0 {fill:none}
    .fil1 {fill:white}
   ]]>
  </style>
 </defs>
 <g id="Layer_x0020_1">
  <metadata id="CorelCorpID_0Corel-Layer"/>
  <rect class="fil0" x="-0.01" y="-0.02" width="8466.67" height="8466.67"/>
  <path class="fil1" d="M1501.58 4616.41c21.97,-32.33 469.44,-478.77 497.54,-496.2 -36.5,255.6 -245.31,449.52 -497.54,496.2zm6188.95 -687.91c7.04,34.59 16.54,37.56 27.23,69.34 20.07,59.63 13.06,193.36 13.1,260.73 0.1,122.9 5.01,256.03 -0.94,377.15l233.06 0.62c-1.66,-151.71 27.98,-708.28 -50.49,-784.69 -40.41,-107.86 -143.39,-192.07 -290.48,-214.36 -185.65,-28.13 -259.37,54.64 -342.06,130.1l-0.25 -114.51 -230.36 0.06 -0.21 983.52 230.83 1.29c-2.58,-120.22 -13.66,-540.76 15.38,-630.16 28.3,-87.15 72.89,-140.08 170.38,-157.04 108.32,-18.84 172.9,41.78 224.81,77.95zm-2693.88 420.51c21.18,206.5 202.62,317.36 436.02,311.44 469.76,-11.91 476.27,-469.78 227.48,-570.34 -174.57,-70.55 -385.91,-24.01 -395.72,-159.93 -11.25,-155.8 284.49,-163.35 311.32,-7.83l229.99 -4.1c-30.32,-115.46 -66.55,-169.04 -148.09,-222.1 -226.37,-147.3 -730.29,-47.63 -618.08,329.52 71.14,239.09 372.46,182.54 490.27,254.35 99.61,60.74 44.11,178.26 -68.96,194.86 -192.82,28.28 -219.92,-101.75 -236.67,-125.21l-227.56 -0.66zm-828.92 -303.82c24.6,-133.89 102.52,-232.33 252.79,-229.74 148.06,2.55 228.5,95.87 250.68,228.94l-503.47 0.8zm489.64 303.84c-126.23,220.98 -499.99,119.15 -490.75,-135.77l742.22 1.25c-4.07,-152.98 -19.34,-304.08 -96.84,-397.25 -70.47,-84.74 -163.83,-153.54 -309.8,-177.73 -645.98,-107.07 -774.36,845 -228.13,1003.58 294.48,85.51 584.58,-103.89 617.56,-292.57l-234.26 -1.51zm2005.24 -304.21l-500.88 -2.05c67.19,-333.86 461.4,-281.75 500.88,2.05zm-11.58 304.28c-147.17,233.2 -503.3,96.9 -489.82,-135.89l740.85 0.94c-2.13,-178.23 -13.73,-271.69 -97.49,-394.52 -183.61,-269.21 -775,-279.95 -865.92,201.35 -60.24,318.85 89.03,544.98 321.23,620.77 276.73,90.35 593.02,-89.3 626.13,-291.68l-234.98 -0.97zm-3093.27 -140.16c-21.12,144.2 -154.06,279.47 -331.81,241.36 -146.7,-31.47 -249.18,-178.16 -213.69,-369.06 67.2,-361.47 608.09,-299.55 545.5,127.7zm-8.25 -435.44c-72.46,-51.01 -97.77,-111.76 -240.48,-130.62 -732.84,-96.79 -725.32,1135.13 15.29,1007.59 142.52,-24.54 153.47,-76.04 224.64,-133l-2.01 119.03 243.89 0.37 1.87 -1353.79 -245.42 -0.53 2.22 490.95zm-2712.64 -490.71c211.15,7.29 589.5,-29.26 756.27,42.26 91,39.03 177.13,93.85 239.18,157.19 43.38,44.28 124.83,167.99 145.79,251.49 -92.13,57.84 -838.87,867.59 -893.45,880.27 -35.3,8.2 -197.4,1.27 -246.33,1.79l-1.46 -1333zm-336.33 1680.18c235.65,5.66 478.18,0.67 714.57,0.51 261.82,-0.19 399.36,4.38 613.96,-100.26 701.05,-341.9 709.64,-1447.43 -13.3,-1811.26 -207.52,-104.44 -353.55,-103.54 -610.58,-103.61 -234.9,-0.06 -470.45,-1.83 -705.65,0.13l1 2014.49z"/>
 </g>
</svg>
